<svg width="373" height="361" viewBox="0 0 373 361" fill="none" xmlns="http://www.w3.org/2000/svg">
<path d="M96.2319 337.211L102.886 337.21L102.118 284.6H96.9999L96.2319 337.211Z" fill="#8C6F6F"/>
<path d="M102.419 305.187L102.118 284.6H97L96.7 305.187H102.419Z" fill="#6D5050"/>
<path d="M107.669 265.886H91.449L93.321 290.008H105.797L107.669 265.886Z" fill="#6D5050"/>
<path d="M140.538 345.528C139.434 339.157 121.509 334.091 99.5581 334.091C77.6081 334.091 59.6831 339.157 58.5781 345.528H140.538Z" fill="#8C6F6F"/>
<path d="M140.593 259.856C140.593 253.195 121.598 252.994 98.9351 252.994C76.2731 252.994 58.5251 253.195 58.5251 259.856C58.5251 266.517 76.8972 271.917 99.5592 271.917C122.221 271.917 140.593 266.517 140.593 259.856Z" fill="#6D5050"/>
<path d="M60.8611 72.853C45.8681 68.89 21.3011 68.868 6.98107 72.282C2.76307 73.288 0.0310656 77.382 0.731066 81.661L23.3611 220.079C24.0141 224.071 27.4631 227.002 31.5071 227.002H81.2711C86.3621 227.002 90.2391 222.439 89.4181 217.416L66.8721 79.51C66.3481 76.306 63.9981 73.682 60.8611 72.853Z" fill="#FF974A"/>
<path d="M68.9011 72.853C53.9081 68.89 29.3411 68.868 15.0211 72.282C10.8031 73.288 8.0721 77.382 8.7711 81.661L31.4001 220.078C32.0531 224.07 35.5021 227.001 39.5471 227.001H89.3111C94.4021 227.001 98.2791 222.438 97.4581 217.415L74.9121 79.509C74.3881 76.306 72.0381 73.682 68.9011 72.853Z" fill="#FF974A"/>
<path d="M50.0491 70.099C37.6461 69.322 24.2221 70.088 15.0211 72.282C10.8031 73.288 8.0721 77.381 8.7711 81.661L19.6961 148.484C23.1851 112.462 34.7731 83.094 50.0491 70.099Z" fill="#FFBA5F"/>
<path d="M190.26 209.534C140.316 205.098 90.0321 205.461 50.2071 208.148C47.9711 227.47 58.4271 243.221 67.0451 252.509H185.23L190.26 209.534Z" fill="#603C4F"/>
<path d="M75.2301 239.894C94.5691 207.247 150.843 206.979 150.843 206.979L139.9 193.315L62.9611 206.831L55.8911 219.515L75.2301 239.894Z" fill="#4F2E41"/>
<path d="M178.747 208.605C180.252 209.961 181.072 211.387 181.072 212.862C181.072 221.743 151.901 228.943 115.917 228.943C79.9331 228.943 50.7621 221.743 50.7621 212.862C50.7621 211.136 51.8761 209.474 53.9161 207.916C52.6801 207.994 51.4241 208.067 50.2071 208.149C47.9711 227.47 58.4271 243.222 67.0451 252.51H185.23L190.259 209.535C186.422 209.193 182.584 208.89 178.747 208.605Z" fill="#4F2E41"/>
<path d="M106.232 250.083H52.545C49.569 250.083 47.157 252.495 47.157 255.471V255.716C47.157 258.692 49.569 261.104 52.545 261.104H106.232C109.208 261.104 111.62 258.692 111.62 255.716V255.471C111.62 252.495 109.207 250.083 106.232 250.083Z" fill="#FF974A"/>
<path d="M83.1041 250.083H53.3541C50.6591 250.083 48.4751 252.268 48.4751 254.963V255.185C48.4751 257.88 50.6601 260.065 53.3541 260.065H83.1041C85.7991 260.065 87.9841 257.88 87.9841 255.185V254.963C87.9831 252.267 85.7991 250.083 83.1041 250.083Z" fill="#FFBA5F"/>
<path d="M147.705 352.181C146.49 348.713 143.221 346.701 140.402 347.689C137.584 348.677 136.285 352.289 137.5 355.757C138.715 359.225 141.985 361.237 144.802 360.249C147.621 359.262 148.921 355.65 147.705 352.181Z" fill="#8C6F6F"/>
<path d="M102.79 352.181C101.575 348.713 98.3049 346.701 95.4869 347.689C92.6689 348.677 91.37 352.289 92.585 355.757C93.8 359.225 97.0689 361.237 99.8879 360.249C102.706 359.262 104.005 355.65 102.79 352.181Z" fill="#8C6F6F"/>
<path d="M61.8251 352.181C60.6101 348.713 57.3401 346.701 54.5221 347.689C51.7041 348.677 50.4051 352.289 51.6201 355.757C52.8351 359.225 56.1051 361.237 58.9221 360.249C61.7411 359.262 63.0401 355.65 61.8251 352.181Z" fill="#8C6F6F"/>
<path d="M177.533 155.319C158.965 140.253 142.811 92.8789 130.958 82.8979C130.958 82.8979 119.38 120.837 128.255 161.735C132.219 180.003 159.689 194.971 165.794 194.122C171.898 193.274 185.57 161.84 177.533 155.319Z" fill="#D64795"/>
<path d="M168.983 172.086C150.75 175.159 131.421 150.66 125.809 117.365C125.683 116.619 125.575 115.877 125.465 115.134C124.417 128.535 124.598 144.879 128.255 161.734C132.219 180.002 159.689 194.969 165.794 194.121C170.047 193.53 178.442 177.608 180.427 165.796C177.123 169.157 173.279 171.362 168.983 172.086Z" fill="#C6388D"/>
<path d="M192.519 175.994C195.14 162.76 187.021 152.597 174.518 153.625C162.233 154.635 150.821 166.068 148.885 178.854C147.001 191.295 154.792 200.676 166.413 200.1C178.231 199.514 189.971 188.86 192.519 175.994Z" fill="#E2DABA"/>
<path d="M248.616 174.811C245.999 173.164 232.514 171.965 224.321 171.935L223.938 191.129C236.355 196.727 251.126 193.1 251.612 190.334C252.098 187.564 251.195 176.434 248.616 174.811Z" fill="#EDB984"/>
<path d="M244.407 160.882C243.234 161.051 238.095 168.276 226.423 172.177L236.701 178.113C239.794 177.009 248.378 167.121 248.586 164.871C248.818 162.359 246.112 160.635 244.407 160.882Z" fill="#EDB984"/>
<path d="M260.284 170.413C259.281 170.388 250.942 171.977 242.209 174.779L247.555 180.418C247.555 180.418 261.059 176.247 262.074 174.582C263.087 172.921 261.743 170.449 260.284 170.413Z" fill="#EDB984"/>
<path d="M264.604 179.836C263.725 179.151 254.33 180.356 245.228 181.701L249.913 187.82C249.913 187.82 263.953 185.871 265.162 184.452C266.367 183.038 265.48 180.517 264.604 179.836Z" fill="#EDB984"/>
<path d="M234.972 193.921C247.031 197.722 262.68 193.247 263.369 192.117C264.057 190.989 264.93 187.628 263.14 187.644C261.334 187.66 252.394 189.702 250.304 188.939C248.19 188.167 235.367 181.755 235.119 182.023C234.871 182.291 234.972 193.921 234.972 193.921Z" fill="#EDB984"/>
<path d="M231.533 193.315C231.533 193.315 169.059 197.972 160.787 193.217C152.515 188.462 160.612 154.827 176.497 155.261C192.382 155.695 235.414 176.541 235.414 176.541L231.533 193.315Z" fill="#EDB984"/>
<path d="M162.11 166.308C155.499 176.32 156.561 190.788 160.787 193.217C169.059 197.972 231.533 193.315 231.533 193.315C231.533 193.315 171.719 163.106 162.11 166.308Z" fill="#E79B69"/>
<path d="M153.011 237.491C150.233 222.408 139.899 215.496 118.689 213.832C97.4792 212.168 92.9212 237.579 96.2312 251.123C98.9292 262.163 138.235 323.071 157.366 349.272C157.366 349.272 158.834 269.098 153.011 237.491Z" fill="#603C4F"/>
<path d="M153.011 237.491C151.803 230.933 148.926 225.031 144.322 220.315C139.836 225.684 127.428 229.55 112.786 229.55C106.927 229.55 101.427 228.927 96.6421 227.842C94.6021 236.073 93.7411 245.397 95.1911 251.331C97.8891 262.371 138.235 323.071 157.366 349.272C157.366 349.272 158.834 269.098 153.011 237.491Z" fill="#4F2E41"/>
<path d="M222.048 237.491C219.27 222.408 207.689 210.782 186.479 209.119C165.269 207.455 164.454 236.747 167.764 250.292C170.462 261.332 207.273 323.072 226.404 349.272C226.404 349.272 227.871 269.098 222.048 237.491Z" fill="#603C4F"/>
<path d="M222.048 237.491C219.642 224.427 210.618 213.969 194.468 210.32C188.969 214.731 167.949 222.796 167.14 223.051C164.493 231.971 165.342 243.777 167.036 250.707C169.734 261.747 207.273 323.071 226.403 349.272C226.403 349.272 227.871 269.098 222.048 237.491Z" fill="#4F2E41"/>
<path d="M50.4841 227.556C88.1911 202.603 150.842 206.979 150.842 206.979C150.842 206.979 131.166 153.528 136.988 132.18C142.811 110.831 137.837 90.22 130.958 82.898C122.363 73.749 98.4451 62.322 86.2501 63.975C69.8921 66.193 47.5321 82.573 39.1041 101.536C25.7961 131.479 50.4841 227.556 50.4841 227.556Z" fill="#D64795"/>
<path d="M81.052 124.07C75.179 100.611 60.743 85.046 50.531 86.467C44.587 92.774 39.587 99.724 36.622 106.395C23.314 136.339 50.485 227.556 50.485 227.556C61.083 220.543 88.011 212.903 100.605 209.775C95.192 181.462 87.711 150.67 81.052 124.07Z" fill="#C6388D"/>
<path d="M317.672 24.604H202.799C197.465 24.604 193.006 30.354 192.5 37.884L184.862 151.607C184.284 160.22 189.06 167.669 195.161 167.669H310.034C315.368 167.669 319.827 161.919 320.333 154.389L327.971 40.666C328.549 32.053 323.774 24.604 317.672 24.604Z" fill="#635356"/>
<path d="M327.884 41.962L327.971 40.665C328.549 32.052 323.773 24.603 317.672 24.603H202.799C197.465 24.603 193.006 30.353 192.5 37.883L190.173 72.528L327.884 41.962Z" fill="#6D5D60"/>
<path d="M286.606 167.668H310.035C313.79 167.668 317.105 164.811 318.919 160.496L286.606 167.668Z" fill="#6D5D60"/>
<path d="M328.302 24.604H213.428C208.094 24.604 203.635 30.354 203.129 37.884L195.491 151.607C194.913 160.22 199.689 167.669 205.79 167.669H320.663C325.997 167.669 330.456 161.919 330.962 154.389L338.6 40.666C339.178 32.053 334.402 24.604 328.302 24.604Z" fill="#564649"/>
<path d="M243.103 49.26C275.712 33.395 310.811 31.964 338.464 42.686L338.6 40.665C339.178 32.052 334.402 24.603 328.302 24.603H213.428C208.094 24.603 203.635 30.353 203.129 37.883L200.144 82.321C211.27 69.161 225.8 57.679 243.103 49.26Z" fill="#514144"/>
<path d="M289.618 123.03H255.516L251.98 167.668H286.083L289.618 123.03Z" fill="#4C3B3F"/>
<path d="M278.874 187.076H236.523V195.394H278.874V187.076Z" fill="#564649"/>
<path d="M288.072 119.842H255.099L264.176 196.226H304.127L288.072 119.842Z" fill="#564649"/>
<path d="M292.439 119.842H259.466L268.543 196.226H308.494L292.439 119.842Z" fill="#635356"/>
<path d="M70.8631 198.305H65.8721V360.5H70.8631V198.305Z" fill="#F2ECD1"/>
<path d="M127.839 198.305H122.848V360.5H127.839V198.305Z" fill="#F2ECD1"/>
<path d="M305.838 198.305H300.847V360.5H305.838V198.305Z" fill="#E2D9B5"/>
<path d="M366.14 198.305H361.15V360.5H366.14V198.305Z" fill="#E2D9B5"/>
<path d="M74.329 107.227C74.606 94.196 70.447 77.838 58.248 80.888C46.048 83.938 26.877 110.835 33.532 143.274C40.186 175.713 62.13 191.514 73.774 194.009L97.54 155.362C72.416 145.892 74.051 120.257 74.329 107.227Z" fill="#D64795"/>
<path d="M40.436 127.499C38.498 118.888 37.753 110.48 38.046 102.71C33.051 113.664 30.365 127.837 33.532 143.273C40.186 175.712 62.13 191.512 73.774 194.008L83.656 177.938C66.174 179.471 47.24 157.723 40.436 127.499Z" fill="#C6388D"/>
<path d="M103.312 174.33C105.933 161.096 97.814 150.933 85.312 151.961C73.027 152.971 61.615 164.404 59.679 177.19C57.796 189.631 65.586 199.013 77.207 198.436C89.023 197.85 100.764 187.197 103.312 174.33Z" fill="#E2DABA"/>
<path d="M160.445 174.811C157.828 173.164 144.342 171.965 136.15 171.935L135.767 191.129C148.184 196.727 162.955 193.1 163.441 190.334C163.927 187.564 163.024 176.434 160.445 174.811Z" fill="#EDB984"/>
<path d="M156.236 160.882C155.063 161.051 149.924 168.276 138.252 172.177L148.53 178.113C151.623 177.009 160.207 167.121 160.415 164.871C160.648 162.359 157.941 160.635 156.236 160.882Z" fill="#EDB984"/>
<path d="M172.114 170.413C171.111 170.388 162.772 171.977 154.039 174.779L159.385 180.418C159.385 180.418 172.889 176.247 173.904 174.582C174.917 172.921 173.573 170.449 172.114 170.413Z" fill="#EDB984"/>
<path d="M176.434 179.836C175.554 179.151 166.16 180.356 157.058 181.701L161.743 187.82C161.743 187.82 175.783 185.871 176.992 184.452C178.196 183.038 177.309 180.517 176.434 179.836Z" fill="#EDB984"/>
<path d="M146.801 193.921C158.86 197.722 174.509 193.247 175.198 192.117C175.886 190.989 176.759 187.628 174.969 187.644C173.163 187.66 164.222 189.702 162.133 188.939C160.019 188.167 147.196 181.755 146.948 182.023C146.701 182.291 146.801 193.921 146.801 193.921Z" fill="#EDB984"/>
<path d="M142.811 193.315C142.811 193.315 80.3372 197.972 72.0652 193.217C63.7932 188.462 67.3482 159.305 82.7152 155.261C103.786 149.716 146.692 176.541 146.692 176.541L142.811 193.315Z" fill="#EDB984"/>
<path d="M114.255 184.942C94.079 180.507 78.121 171.267 73.406 162.228C66.31 172.358 65.861 189.651 72.066 193.217C80.338 197.972 142.812 193.315 142.812 193.315C142.812 193.315 125.26 187.362 114.255 184.942Z" fill="#E79B69"/>
<path d="M372.379 193.315H33.8491V201.217H372.379V193.315Z" fill="#F2ECD1"/>
<path d="M372.378 193.315H133.661V201.217H372.378V193.315Z" fill="#E2D9B5"/>
<path d="M238.437 360.5H227.104C227.104 360.5 219.539 347.462 224.468 345.845C229.397 344.229 231.307 356.189 231.307 356.189L238.437 360.5Z" fill="#D1C79F"/>
<path d="M169.955 360.5H158.622C158.622 360.5 151.057 347.462 155.986 345.845C160.915 344.229 162.825 356.189 162.825 356.189L169.955 360.5Z" fill="#D1C79F"/>
<path d="M81.052 92.0469C97.317 88.3619 108.292 79.1539 110.666 69.7159C101.877 65.7409 92.518 63.1249 86.25 63.9749C74.011 65.6349 58.414 75.2239 47.804 87.8889C47.131 88.5969 46.464 89.3579 45.803 90.1569C54.085 92.0999 69.722 94.6129 81.052 92.0469Z" fill="#C6388D"/>
<path d="M114.564 2.57193C99.2811 -3.67707 72.9471 6.19993 72.9471 6.19993C72.9471 6.19993 62.9901 28.3719 76.0111 51.3209L106.901 46.3119C118.983 28.5739 114.564 2.57193 114.564 2.57193Z" fill="#893044"/>
<path d="M83.738 82.2388C95.475 82.4578 105.286 76.5908 107.882 68.5158C99.87 65.0868 91.568 62.4248 85.907 63.0798C79.18 63.8578 71.171 68.2558 63.301 73.8868C67.782 78.7828 75.26 82.0808 83.738 82.2388Z" fill="#E5DDBA"/>
<path d="M69.5342 69.73L78.5572 33.615L103.816 34.716L103.156 66.889C101.326 80.194 75.4382 79.258 69.5342 69.73Z" fill="#D27558"/>
<path d="M84.523 14.44C78.281 23.67 81.417 60.791 85.506 64.806C89.595 68.82 107.304 67.968 109.32 65.865C111.336 63.762 116.886 21.131 112.421 15.97C107.958 10.808 87.497 10.043 84.523 14.44Z" fill="#EDB984"/>
<path d="M100.944 33.082C100.986 31.258 99.9911 29.813 98.7171 29.849C97.4381 29.886 96.3581 31.402 96.3091 33.239C96.2601 35.081 97.2661 36.538 98.5521 36.487C99.8331 36.438 100.902 34.911 100.944 33.082Z" fill="#5A4949"/>
<path d="M115.661 33.206C115.489 31.375 114.411 30.015 113.249 30.166C112.082 30.317 111.269 31.932 111.436 33.777C111.604 35.626 112.693 36.996 113.864 36.831C115.03 36.667 115.833 35.042 115.661 33.206Z" fill="#5A4949"/>
<path d="M102.807 20.839L95.0321 21.392C94.0591 21.461 93.3771 22.466 93.5131 23.636L93.7831 25.961C93.9191 27.134 94.8231 28.018 95.7971 27.935L103.575 27.272C104.513 27.192 105.159 26.2 105.022 25.055L104.751 22.787C104.613 21.644 103.745 20.773 102.807 20.839Z" fill="#893044"/>
<path d="M115.579 21.844L109.63 21.106C108.891 21.014 108.269 21.796 108.243 22.854L108.189 24.958C108.162 26.023 108.744 26.956 109.487 27.041L115.468 27.727C116.195 27.81 116.798 27.025 116.817 25.975L116.854 23.897C116.873 22.853 116.302 21.934 115.579 21.844Z" fill="#893044"/>
<path d="M107.307 51.7691C103.815 52.7761 99.903 50.0221 98.137 45.1741L96.375 45.7371C98.016 50.9861 102.143 54.0051 105.787 52.9541C106.767 52.6711 107.612 52.0911 108.328 51.3271C108.001 51.5021 107.667 51.6651 107.307 51.7691Z" fill="#D27558"/>
<path d="M101.764 55.3531C101.864 54.6521 100.974 53.9451 99.7761 53.7741C98.5781 53.6031 97.5261 54.0331 97.4261 54.7341C97.3261 55.4351 98.2161 56.1421 99.4141 56.3131C100.612 56.4841 101.664 56.0541 101.764 55.3531Z" fill="#D27558"/>
<path d="M79.98 44.925L88.566 45.042C88.566 45.042 92.838 8.55203 86.333 6.94703C79.828 5.34203 76.604 27.679 76.604 27.679L79.98 44.925Z" fill="#893044"/>
<path d="M107.097 29.248H92.172L91.834 40.954H106.759L107.097 29.248Z" fill="#F2ECD1"/>
<path d="M119.768 29.248H109.207L108.968 40.954H119.529L119.768 29.248Z" fill="#F2ECD1"/>
<path d="M111.429 29.248H105.052V32.991H111.429V29.248Z" fill="#F2ECD1"/>
<path d="M92.402 29.248L74.7791 33.962V35.625L92.402 32.991V29.248Z" fill="#F2ECD1"/>
<path d="M74.7791 33.9619L72.7341 36.4569L73.8091 38.6749L76.2001 34.5509L74.7791 33.9619Z" fill="#F2ECD1"/>
<path d="M82.499 49.0189C74.042 43.5879 73.179 35.0579 77.568 32.3329C81.956 29.6079 84.388 39.2269 85.012 43.2899C85.636 47.3539 82.499 49.0189 82.499 49.0189Z" fill="#EDB984"/>
<path d="M81.3611 45.8191C75.9501 42.3441 75.3981 36.886 78.2061 35.143C81.0141 33.4 82.5691 39.5541 82.9691 42.1541C83.3681 44.7541 81.3611 45.8191 81.3611 45.8191Z" fill="#D27558"/>
<path d="M82.4071 46.624C79.6421 44.85 79.3641 42.0651 80.8021 41.1771C82.2401 40.2891 83.0311 43.428 83.2331 44.755C83.4361 46.081 82.4071 46.624 82.4071 46.624Z" fill="#EDB984"/>
<path d="M198.403 154.102L206.041 40.379C206.546 32.85 211.006 27.099 216.339 27.099H331.212C332.568 27.099 333.853 27.485 335.034 28.152C333.231 25.952 330.888 24.603 328.301 24.603H213.428C208.094 24.603 203.635 30.353 203.129 37.883L195.491 151.606C195.041 158.304 197.836 164.281 201.968 166.615C199.519 163.628 198.07 159.063 198.403 154.102Z" fill="#47373A"/>
<path d="M105.52 31.1199H94.0791L93.8201 39.9479H105.261L105.52 31.1199Z" fill="#EDB984"/>
<path d="M118.69 31.1199H110.759L110.58 39.9479H118.51L118.69 31.1199Z" fill="#EDB984"/>
<path d="M101.776 35.1669C101.815 33.4689 100.889 32.1239 99.7039 32.1579C98.5139 32.1919 97.509 33.6029 97.464 35.3129C97.419 37.0279 98.355 38.3829 99.552 38.3359C100.742 38.2899 101.736 36.8689 101.776 35.1669Z" fill="#5A4949"/>
<path d="M116.221 35.6449C116.311 34.1829 115.629 32.9809 114.697 32.9569C113.76 32.9319 112.922 34.1039 112.827 35.5759C112.732 37.0519 113.421 38.2629 114.362 38.2769C115.299 38.2909 116.13 37.1119 116.221 35.6449Z" fill="#5A4949"/>
<path d="M108.021 35.0588C108.021 35.0588 107.724 35.4888 107.322 36.1728C109.155 39.8678 111.208 46.0878 105.175 44.5998C105.209 44.7578 105.203 44.9248 105.252 45.0788C115.507 49.1208 109.602 37.4018 108.021 35.0588Z" fill="#D27558"/>
</svg>
